<svg id="Capa_1" data-name="Capa 1" xmlns="http://www.w3.org/2000/svg" viewBox="0 0 500 300"><defs><style>.cls-1{fill:#fcecdb;}.cls-2{fill:#2e3552;}.cls-3{fill:#f8fbff;}.cls-4{fill:#86d1cd;}.cls-5{fill:#e7f1fb;}.cls-6{fill:#f9ddbf;}.cls-7{fill:#ffead7;}.cls-8{fill:#f4e0ce;}.cls-9{fill:#efcbab;}.cls-10{fill:#d8ae8b;}.cls-11{fill:#c6916d;}.cls-12{fill:#d39e7a;}.cls-13{fill:#ed985f;}.cls-14{fill:#b5453c;}.cls-15{fill:#d35650;}.cls-16{fill:#deeeff;}.cls-17{fill:#233862;}.cls-18{fill:#ffb27d;}.cls-19{fill:#dd6d22;}.cls-20{fill:#9e332e;}.cls-21{fill:#ed7d2b;}.cls-22{fill:#f99746;}.cls-23{fill:#fff;}.cls-24{fill:#163560;}.cls-25{fill:#1f426d;}.cls-26{fill:#5aa9ad;}.cls-27{fill:#4f9999;}.cls-28{fill:#6bb7bf;}.cls-29{fill:#5ea7aa;}.cls-30{fill:#2b478b;}.cls-31{fill:#deedff;}.cls-32{fill:#bbd6f2;}.cls-33{fill:#eac3a0;}.cls-34{fill:#599dad;}.cls-35{fill:#ffb176;}.cls-36{fill:#db6a1f;}.cls-37{fill:#e8c6a7;}.cls-38{fill:#c48e6a;}.cls-39{fill:#8ad8db;}.cls-40{fill:#ed9f4a;}.cls-41{fill:#ffb278;}.cls-42{fill:#d65751;}</style></defs><title>Mesa de trabajo 1</title><path class="cls-1" d="M484.54,299.46,34.4,299.33s-60.21-64.64-10.18-134.62a165.48,165.48,0,0,1,15.49-18.78c.69-.71,1.38-1.42,2.07-2.11L43.64,142c21.15-20.22,43.2-27.83,64.13-27.22l1.86.07,2.08.14c16.7,1.31,32.59,7.76,46.6,17.06,16.17,10.73,62.79,1.32,102.47-61.86a83.08,83.08,0,0,1,24.13-24.81l.16-.1a92.71,92.71,0,0,1,8-4.77c18.41-9.79,40.46-13.67,62.71-12.2a145.2,145.2,0,0,1,37,7.41c2.74.94,5.45,2,8.13,3.05q3.45,1.42,6.83,3,2.94,1.39,5.79,2.92c23.08,12.33,42.22,31.23,52,55.79a98.35,98.35,0,0,1,6.25,25,110.41,110.41,0,0,1,.09,23.86l-.09.88a131.47,131.47,0,0,1-3.38,18.37l-.06.25c-.12.45-.23.9-.34,1.34l0,.11-.12.53c-.3,1.24-.56,2.46-.79,3.66,0,.19-.07.37-.1.56-.1.52-.19,1-.28,1.55-.28,1.71-.51,3.38-.67,5C460.69,233.65,516.22,239.88,484.54,299.46Z"/><rect class="cls-2" x="1.31" y="298.61" width="517.39" height="1.37" rx="0.69"/><path class="cls-3" d="M471.8,149.36l-.09.88a131.47,131.47,0,0,1-3.38,18.37l-.06.25c-.12.45-.23.9-.34,1.34H285.07V45.29a92.71,92.71,0,0,1,8-4.77c18.41-9.79,40.46-13.67,62.71-12.2a145.2,145.2,0,0,1,37,7.41c2.74.94,5.45,2,8.13,3.05q3.45,1.42,6.83,3,2.94,1.39,5.79,2.92c23.08,12.33,42.22,31.23,52,55.79a98.35,98.35,0,0,1,6.25,25A110.41,110.41,0,0,1,471.8,149.36Z"/><path class="cls-4" d="M471.8,149.36c-10.94-3.59-15.41-24.59-27.47-30.75-15.31-7.81-24.15-10.82-26.21-27.77-.9-7.41-8.08-10.21-17.25-12.51-2.59-.65-5.33-1.26-8.13-1.92-10-2.37-20.88-5.4-28.18-13.32-10.69-11.6-10.38-26-8.81-34.77a145.2,145.2,0,0,1,37,7.41c2.74.94,5.45,2,8.13,3.05q3.45,1.42,6.83,3,2.94,1.39,5.79,2.92c23.08,12.33,42.22,31.23,52,55.79a98.35,98.35,0,0,1,6.25,25A110.41,110.41,0,0,1,471.8,149.36Z"/><polygon class="cls-5" points="445.28 146.33 445.28 170.21 285.07 170.21 285.07 95.42 299.36 95.42 299.36 118.15 315.65 118.15 315.65 81.11 333.62 81.11 333.62 105.15 337.71 105.15 337.71 76.45 355.69 76.45 355.69 130.26 378.41 130.26 378.41 161.65 386.9 161.65 386.9 147.67 406.41 147.67 406.41 155.94 417.61 155.94 417.61 118.95 431.44 118.95 431.44 146.33 445.28 146.33"/><path class="cls-6" d="M467.9,170.31l-.12.53c-.3,1.24-.56,2.46-.79,3.66,0,.19-.07.37-.1.56-.1.52-.19,1-.28,1.55-.28,1.71-.51,3.38-.67,5H264V170.2H466.32A11.75,11.75,0,0,1,467.9,170.31Z"/><path class="cls-6" d="M285.07,45.29a92.71,92.71,0,0,1,8-4.77V170.85h-8.13V45.39Z"/><path class="cls-6" d="M400.87,38.78V170.85h-8.13V35.73C395.48,36.67,398.19,37.68,400.87,38.78Z"/><path class="cls-6" d="M109.63,114.86l-1.86-.07c-20.93-.61-43,7-64.13,27.22l-1.86,1.81c-.69.69-1.38,1.4-2.07,2.11v20.71h72V115Z"/><path class="cls-7" d="M107.77,114.79c-20.93-.61-43,7-64.13,27.22l-1.86,1.81V164h67.85V114.86Z"/><path class="cls-8" d="M107.77,114.79v46.9H43.64V142C64.79,121.79,86.84,114.18,107.77,114.79Z"/><path class="cls-9" d="M300,234.21c-.74,1.77-7.87,3.4-18.46,4.85q-2.81.38-5.91.75c-36,4.24-134.76,6.61-140.85,5.36-8.41-1.73-25.14-86.28-25.14-86.28s49.27-.86,88.39-1.28c13.39-.14,59.94-.49,68.58-.49C279.94,157.12,301.16,231.36,300,234.21Z"/><path class="cls-6" d="M286.33,223.36s-15.13-57.94-16.22-62.81a3.81,3.81,0,0,0-3.49-3.15c2.66-.26,4.59-.28,4.59-.28a12.28,12.28,0,0,1,11.56,8.76c3.67,11.41,10.41,32.47,17.24,53.91C299.67,219.78,286.33,223.36,286.33,223.36Z"/><path class="cls-6" d="M378,274.66c-2.41,14.53-18.18,23.79-34.36,23.79h-32l2.5-84.71s30.58-9.23,38.25-.45c6.73,7.69,25,38.12,25.94,56.14A24.35,24.35,0,0,1,378,274.66Z"/><path class="cls-10" d="M378,274.66c-2.41,14.53-18.18,23.79-34.36,23.79H327.92C338.4,291.77,347.88,271.18,378,274.66Z"/><path class="cls-11" d="M292.94,222.71s43.23-20.75,51.41-7.2c4.35,7.2,16.32,35.9,17.2,53.92.86,17.51-15.27,29-31.86,29H300.22Z"/><path class="cls-12" d="M349.9,284.3c-.48.38-1,.76-1.48,1.13A66.77,66.77,0,0,1,324.72,296a93.07,93.07,0,0,1-22.81,2.57h-14.2l-66.33,0H182.8l-1.32-6.91-13.17-68.92s167.77-5.8,181.32,1.93c6.29,3.59,9.82,19.85,11.8,36.24C362.48,269.61,358,277.8,349.9,284.3Z"/><path class="cls-11" d="M349.9,284.3c-.48.38-1,.76-1.48,1.13A66.77,66.77,0,0,1,324.72,296a93.07,93.07,0,0,1-22.81,2.57h-14.2l-66.33,0H182.8l-1.32-6.91c23.3-4.5,55.55-9.07,89.19-8.72C302.79,283.26,329.69,283.22,349.9,284.3Z"/><g id="girl_2" data-name="girl 2"><path class="cls-13" d="M289.32,150.72s-8.31,7.16-9,6.91c-10.23-3.52-20.2-12-20.2-12l-1.8,3.41s16.09,18.35,21.46,18.29c10.6-.13,20.23-9.57,22.24-10.85S295.19,152,289.32,150.72Z"/><path class="cls-13" d="M260.08,145.62s-1.42-2.77-2.84-2.85-1.16,1.73-4.7,1.43c-.85-.08-2.17-.39-1.47,1.07s3,3.37,4.37,3a5.45,5.45,0,0,1,3.22.72Z"/><path class="cls-14" d="M264.34,144.07a3.43,3.43,0,0,0-2.09,0v-1c0-.21,0-.42,0-.63H252.06a4.44,4.44,0,0,0,0,.63v2a5.11,5.11,0,0,0,9,3.37h0s2.41-.59,3.17-1.49S265.14,144.57,264.34,144.07Zm-.54,1.84c-.25.67-1.41,1-2,1.16a5.24,5.24,0,0,0,.41-1.68,1.5,1.5,0,0,1,1.3-.69C263.91,144.77,264.13,145.08,263.8,145.91Z"/><path class="cls-15" d="M253,143.05v2a5.13,5.13,0,0,0,5.11,5.11,3.87,3.87,0,0,0,.69,0,5.11,5.11,0,0,1-4.42-5.06v-2a4.58,4.58,0,0,1,0-.64h-1.38A4.58,4.58,0,0,0,253,143.05Z"/><rect class="cls-16" x="255.21" y="149.72" width="4.18" height="0.63"/><path class="cls-17" d="M297.71,114s7.59-1.44,11.38,1.32c6.84,5,7.21,22.25,9.78,24.82s8.75,1.47,9.31,14.76-2.47,14.41,1.12,20.34-1.52,11.87-1.52,11.87,2.1-3.27,1.2-5.64c0,0-.87,5.22-4.19,6.44s-3.8,2.12-4.33,3.92c0,0-28.28-14.49-28.31-24.77s-5.57-20.46-2.85-24.91a9.83,9.83,0,0,0-1.36,4,5.29,5.29,0,0,1,1.2-6c2.83-2.91-3.32-8.93-2.41-15.9C287.36,119.4,290.72,114.16,297.71,114Z"/><path class="cls-18" d="M292.12,156.73a19.73,19.73,0,0,0,6.92,2.94c10.66,2.47,14.75-6.55,16.28-12.73a9.1,9.1,0,0,0-3.61-1.11c-.77-.09-1.58-.15-2.25-.19-1.2-.91-3-4.67-3.38-10.5l-.5.14-8.41,2.3s.39,2.67.58,5.2c.14,2,.17,3.86-.21,4.32l-1.05.24h0A54.06,54.06,0,0,0,292.12,156.73Z"/><path class="cls-13" d="M297.17,137.58s.39,2.67.58,5.2c4.76-.48,7-5,7.83-7.5Z"/><path class="cls-18" d="M295.75,140.09s11.31-.63,10.81-7.66.63-11.85-6.61-11.75-8.45,2.89-8.85,5.27S292.8,140.07,295.75,140.09Z"/><path class="cls-17" d="M291.15,122c1.59-2.24,3-1.87,3.73-1.29a7.91,7.91,0,0,1,10.26.9,13.48,13.48,0,0,0,5,7.62s-2,1.42-6.8.54a8.08,8.08,0,0,1-4-2.38,26.37,26.37,0,0,0,4.93,5.21c-5.86-2.21-8.7-9.93-9-10.74a8.88,8.88,0,0,0-2.22,3.45c-.44,1.83-2.31,4.7-3.39,4.65C289.61,130,288.76,125.38,291.15,122Z"/><path class="cls-14" d="M318.54,179.71c1-5.22,4.35-26.06,1-32.77-1.19-2.41-5.88-2.63-11-2.42-1.6,1-7.7,4.94-10.21,4.45l-.14,0c-1.18-.29-1.62-1.12-.64-1.84a22.86,22.86,0,0,0-5.71.35c-1.79.34-5.75,5-5.75,5s1.83,4.23,5.15,3.78c-.61,5.45.3,7.85,5.95,20.43,4.77,10.63-.65,20.21-.65,20.21s28.11,22.59,28.26,11.09C324.91,199.25,317.24,186.38,318.54,179.71Z"/><path class="cls-19" d="M295.14,221.39a5.21,5.21,0,0,1-3.76-2.29l-.44-.65c-3.19-4.85-4.44-19.68-11.63-35.48-1.76-3.85-8.05-4.54-9.76-8.89,0,0-4.23-14.09,8.08-14.51s32.95,39.22,33.28,43.38S319,224.08,295.14,221.39Z"/><path class="cls-20" d="M246.23,221.06h17.52s.65-2.79-.5-4.69c-1-1.68-.63-2.64.13-4a6.82,6.82,0,0,1-2.95.55,6.19,6.19,0,0,1-2.61-.91,62.84,62.84,0,0,1-5,5.24C251.69,218,246.59,217.75,246.23,221.06Z"/><path class="cls-20" d="M316.7,152.4s2.28,20.74-12.51,25.08-19-19.08-7-20.76A115.28,115.28,0,0,0,316.7,152.4Z"/><path class="cls-21" d="M269.15,163.65c-1.06,7.9-5.18,32.86-12.44,45-2.34,3.93,5.9,6.13,5.94,6.11,1.11-.28,3-2,3.8-2.81,5.9-5.32,17.87-20.37,17.87-32.43,0-5.89.1-17.12-4.18-20C277.51,157.81,269.56,160.51,269.15,163.65Z"/><path class="cls-22" d="M305.58,221.06s-.65-.9-1.78-2.61c-1.35-2-2.84-6.06-4.65-11.21-1.9-5.4-4.15-12-7-19-.87-2.13-1.8-4.29-2.78-6.45-1.75-3.85-6.57-3.32-8.29-7.66,0,0-6.69-15.08,5.61-15.49s35.69,40.32,37,44.27C325.23,207.27,332.41,225.2,305.58,221.06Z"/><path class="cls-14" d="M259.09,221.06H276.6s.66-2.79-.49-4.69c-1-1.68-.63-2.64.12-4a6.79,6.79,0,0,1-3,.55,6.15,6.15,0,0,1-2.6-.91,62.84,62.84,0,0,1-5,5.24C264.55,218,259.44,217.75,259.09,221.06Z"/><path class="cls-21" d="M299.15,207.24c-1.9-5.4-4.15-12-7-19,.73-5.24,2.32-9.82,5-11.67C297.18,176.61,303.65,196.66,299.15,207.24Z"/><path class="cls-22" d="M279.37,163.09c-1.06,7.9-2.54,33.42-9.81,45.59-2.34,3.93,5.9,6.13,5.95,6.11,1.1-.28,2.95-2,3.8-2.81,5.89-5.32,17.86-20.37,17.86-32.43,0-5.89-6.9-16.65-11.18-19.51A4.3,4.3,0,0,0,279.37,163.09Z"/><path class="cls-18" d="M315.32,146.94s-24.85,9.15-28.59,9c-2.41-.12-22.48-7.17-22.48-7.17l-1.8,3.41s19.53,12.55,24.9,12.49c10.6-.13,28.49-6.63,30.51-7.91S321.19,148.23,315.32,146.94Z"/><path class="cls-18" d="M264.25,148.73s-1.8-2.77-3.59-2.85-1.47,1.73-6,1.42c-1.08-.07-2.75-.39-1.85,1.08s3.72,3.37,5.52,3a8.23,8.23,0,0,1,4.07.72Z"/><path class="cls-18" d="M261.15,146s-2.86-1.31-3.67-1.55-.65,0-.41.77,1.71,1.51,1.71,1.76S261.15,146,261.15,146Z"/><path class="cls-23" d="M293.64,136a10.5,10.5,0,0,1,4.07-.18s-.16,1.18-2.38,1.29A1.76,1.76,0,0,1,293.64,136Z"/><path class="cls-14" d="M302.52,151.45a13.65,13.65,0,0,0,9.86,8.64s12.6-3.88,6.33-12.47C318.71,147.62,312.5,143,302.52,151.45Z"/></g><path class="cls-24" d="M276.63,280.54s5.89,10.62,8.49,11.82,11.33,1.79,12.23,6.93H266.87a26.88,26.88,0,0,1,0-8.62c.82-4.1,1.45-9.4,1.45-9.4Z"/><path class="cls-25" d="M250,284.7s5.86,6.46,8.47,7.66,11.33,1.79,12.22,6.93H240.21a26.88,26.88,0,0,1,0-8.62c.81-4.1,1.3-7.92,1.3-7.92Z"/><path class="cls-26" d="M281.39,280.67s-3.06,2.67-4.92,3.29c-2.94,1-11.16,1.39-11.16,1.39s-10.23-27.89-13.18-34.74c-2.79-6.49-5.53-20.29-5.53-20.29-2.13-.12-20.21,2-34.22.51-7.46-.81-13.76-2.65-15.9-6.41C190.32,213.57,210,201.48,210,201.48s39.57,3.11,48.4,8.69S281.39,280.67,281.39,280.67Z"/><path class="cls-27" d="M246.6,230.32c-2.13-.12-20.21,2-34.22.51-3.81-6.92-8.8-16-8.8-16S229.24,211.89,246.6,230.32Z"/><path class="cls-28" d="M253.43,285.73a5.76,5.76,0,0,1-2.86.81c-1.82.12-11.66,0-11.66,0S228,263.16,223.75,251.84c-2-5.29-2-12.52-2.49-15.9-.14-1.06-.33-1.74-.62-1.87h0a1.36,1.36,0,0,0-.28-.08h0c-4.72-1-44,3-49.56-7.76a9.38,9.38,0,0,1-1.11-5.05c.58-8.54,13.24-14.67,13.24-14.67s41.68,2,50.29,7.89S253.43,285.73,253.43,285.73Z"/><path class="cls-27" d="M276.47,284c-2.94,1-11.16,1.39-11.16,1.39s-10.23-27.89-13.18-34.74c-2.79-6.49-5.53-20.29-5.53-20.29S268,278.91,276.47,284Z"/><path class="cls-29" d="M220.34,234c-4.72-1-44,3-49.56-7.76a9.38,9.38,0,0,1-1.11-5.05l9.05-10s.71,14.22,12.49,15.83C202.1,228.48,218,233.26,220.34,234Z"/><path class="cls-29" d="M250.57,286.54c-1.82.12-11.66,0-11.66,0S228,263.16,223.75,251.84c-2-5.29-2-12.52-2.49-15.9C225.56,245.1,243.86,283.38,250.57,286.54Z"/><path class="cls-18" d="M255.89,157.76a7.14,7.14,0,0,1-1.22-.63h8.92s-3.42-1.94-5.65-2.93-7.67,0-7.67,0-20.19-3-31.51-2.72c-3,.08-24.63-3.44-30.85-2.2-5.47,1.1-8.43,1.62-9.66,1.83h-.7c0-.78-.1-1.5-.16-2.18a53.06,53.06,0,0,0-.86-6.36l-7.6-3.68-3.81,2c0,.42.06.83.08,1.24a21.34,21.34,0,0,1-2.43,10.74c-1.49.33-2.89.67-4.13,1,5.69,4.91,34.66,13.45,35.15,10.94.66-3.37,56.48-7.71,56.48-7.71h0a5.9,5.9,0,0,1,1.94,1.14c.38.56,3.5.47,4.08.56S256.57,158,255.89,157.76Z"/><path class="cls-13" d="M176.53,142.56a53.06,53.06,0,0,1,.86,6.36c-6.44-.21-10.65-4.77-12.19-6.77,0-.41,0-.82-.08-1.24l3.81-2Z"/><path class="cls-18" d="M178.3,145.73s-13.48,1.55-14.31-6.86-3.14-13.87,5.43-15.21,10.56,1.69,11.52,4.43S181.79,145.11,178.3,145.73Z"/><path class="cls-30" d="M165.2,142.15a6.33,6.33,0,0,1,.3-4.76s-1.38-2.58-.42-3.34,1.85,1.48,2.24,1a11.43,11.43,0,0,0,2.34-5.67c.23-2.81,9.82-2.24,11-2.08s3.93-2.45,4.17-4a19.76,19.76,0,0,1-3.35-1.78c-1.13-.85-8.95-6.55-16.32-2.18s-7.37,8.5-6,11.63S161.62,142,165.2,142.15Z"/><path class="cls-31" d="M196.37,169c-.59-1.29-1-3.73,2.62-6.07,2.46-1.59,3.23-4.62,3.35-7.38a23.32,23.32,0,0,0-.54-5.88s-10-1.09-12.32-1.09-10.06,2.34-10.06,2.34h0c.07.12,2.33,4-3,6.28s-16.26-3.69-16.26-3.69-.26,18.5.38,36c.54,14.8,1.69,29,4.09,31.09,3.09,2.67,19.23-3.29,32.24-9.24,9.11-4.18,16.68-8.35,17.15-9.56C214.92,199.54,202,178.17,196.37,169Z"/><path class="cls-32" d="M196.89,211.39c-13,6-29.15,11.91-32.24,9.24-2.4-2.08-3.55-16.29-4.09-31.09.59-8.36,1.38-14.94,1.38-14.94s11.27,10.81,12.53,15.82C175.66,195.17,196.58,207.31,196.89,211.39Z"/><path class="cls-18" d="M148.67,166.55s-1.34,24.39,3.47,35.15c0,0,22.44,3.13,38.19-2l-.57-4.52s-26.94-2.44-26.94-3.35S161.26,163,161.36,161,148.67,166.55,148.67,166.55Z"/><path class="cls-14" d="M191,193.1c.76.9,3.17,1.49,3.17,1.49h0a5.11,5.11,0,0,0,9-3.37v-2a4.44,4.44,0,0,0,0-.63H193c0,.21,0,.42,0,.63v1a3.43,3.43,0,0,0-2.09,0C190,190.74,190.27,192.2,191,193.1Zm.6-2.23a1.51,1.51,0,0,1,1.31.69,5.23,5.23,0,0,0,.4,1.68c-.56-.14-1.72-.49-2-1.16C191,191.25,191.26,190.94,191.63,190.87Z"/><path class="cls-15" d="M202.11,188.58h-1.38a4.6,4.6,0,0,1,.05.64v2a5.12,5.12,0,0,1-4.43,5.06,3.87,3.87,0,0,0,.69.05,5.13,5.13,0,0,0,5.11-5.11v-2A4.58,4.58,0,0,0,202.11,188.58Z"/><rect class="cls-16" x="195.78" y="195.89" width="4.18" height="0.63" transform="translate(395.74 392.4) rotate(180)"/><path class="cls-31" d="M164.2,174.18a19.09,19.09,0,0,1-8.83,0,27.84,27.84,0,0,1-8.81-3.62,79.35,79.35,0,0,1,2.05-11.35c.47-1.61,1.95-2.78,3.7-3.62a28.83,28.83,0,0,1,7.87-2.13S173.18,171.88,164.2,174.18Z"/><path class="cls-18" d="M189.76,195.13a7.15,7.15,0,0,1,3.71-2.61c2.14-.43,4.63-2.66,4.88-2s-2.65,2.4-1.71,2.74,4.2-1.37,5.31-.94.34,3.34-1.37,5.05-10.25,2.25-10.25,2.25Z"/><path class="cls-32" d="M202.34,155.54c-.12,2.76-.89,5.79-3.35,7.38-3.88,2.52-3.12,5.17-2.48,6.36C191,161.43,201.83,155.8,202.34,155.54Z"/><path class="cls-32" d="M155.37,174.22a27.84,27.84,0,0,1-8.81-3.62,79.35,79.35,0,0,1,2.05-11.35c.47-1.61,1.95-2.78,3.7-3.62l.24,0S148.07,166,155.37,174.22Z"/><path class="cls-6" d="M215.69,275.42c-2.6,14.09-16.86,23-31.48,23H154.74l2.31-84.71s28.12-9.23,35.18-.45c6.19,7.69,23,38.12,23.85,56.14A26.18,26.18,0,0,1,215.69,275.42Z"/><path class="cls-33" d="M215.69,275.42c-2.6,14.09-16.86,23-31.48,23H160.63C171.67,291.41,186.53,272,215.69,275.42Z"/><path class="cls-12" d="M170,298.38l-.66,0c-.46,0-.93,0-1.4.05H138l-1.7,0-9.14.09h-2c-2.9,0-5.47,0-7.3,0a52.26,52.26,0,0,1-7.29-.53,33.7,33.7,0,0,1-8.12-2.18,27.79,27.79,0,0,1-2.58-1.23,26,26,0,0,1-3.2-2.05,27.74,27.74,0,0,1-6.8-7.51,40,40,0,0,1-3.53-7.24,66.48,66.48,0,0,1-3.1-11.61,141.74,141.74,0,0,1-2-21.87q-.12-5.07,0-10.69.15-9,.85-19.47c.65-9.82,1.64-20.65,3-32.58,1.19-10.89,2.56-18.51,4.57-20.24,3-2.56,9.11-3.59,13.39-4h0c2.66-.26,4.59-.28,4.59-.28a12.29,12.29,0,0,1,11.57,8.78c3.42,10.69,9.52,29.8,15.88,49.79l.09.3c.37,1.15.73,2.3,1.1,3.46.06.17.11.35.17.52l1.11-.46,0,0c1.52-.63,3.25-1.33,5.11-2h0q1.45-.55,3-1.11c2.9-1.05,6-2.08,9.23-3,1.41-.39,2.83-.76,4.24-1.09,1.82-.42,3.62-.78,5.37-1.05l.15,0,.62-.09c7.57-1,14.14-.32,16.85,4.19,4.35,7.21,16.31,36,17.2,54.07C200.15,286,185.66,297.28,170,298.38Z"/><path class="cls-6" d="M122.73,223.36s-15.12-57.94-16.21-62.81a3.82,3.82,0,0,0-3.5-3.15c2.66-.26,4.59-.28,4.59-.28a12.28,12.28,0,0,1,11.57,8.76c3.66,11.41,10.41,32.47,17.24,53.91C136.07,219.78,122.73,223.36,122.73,223.36Z"/><path class="cls-34" d="M85.08,250.86s7.66-8.94.47-14.61c0,0-5.25-3.18-9.53-2.92,0,0,6.06,10.17,4.1,11.18s-5.94-11.82-5.94-11.82-12-1.16-15.79.69c0,0,10.21,8.36,8.06,8.85s-13.18-7.7-13.18-7.7-11.12,1.89-10.53,8.67,4.42,8.88,6.11,8.7S60.38,248,60.6,249.34s-5.72,5.89-9.87,6.1c0,0,7.84,8.65,13.05,6.15s5.66-6.45,8.9-7.93,6-1.48,4.68,0-7.22,3-9.07,6.27-3.53,5.5,1.86,4.69,14.16-4.75,14.54-9.27Z"/><path class="cls-34" d="M48.2,243.39s30.21-1.17,36.88,7.47a21.77,21.77,0,0,0,6,8.44l.71,1.93s-5.23-5.52-7.11-5.85C84.69,255.38,87.62,244.68,48.2,243.39Z"/><path class="cls-34" d="M91.09,259.3A19,19,0,0,1,98,272.66l-1.18.11s-2.07-8.86-5.81-12.32S91.09,259.3,91.09,259.3Z"/><path class="cls-4" d="M111.86,239.62s-12.18-6.82-6.5-16.08c0,0,4.55-5.69,9.43-7.15,0,0-2.6,13.81,0,14.13s1.78-15.6,1.78-15.6,12.84-6.17,17.88-5.68c0,0-8,13.48-5.36,13.16s11.53-14,11.53-14,13.16-2.44,15.27,5.36-1.3,11.7-3.24,12.18-14.47.33-14.14,1.95,8.77,4.23,13.49,2.77c0,0-5.2,12.83-12,12.18s-8.93-4.87-13.16-5.2-7.31.81-5.2,2,9.26.37,12.67,3.28,6.18,4.68-.16,6-17.71.49-20-4.38Z"/><path class="cls-28" d="M149.88,216.22s-34.12,11.05-38,23.4a25.94,25.94,0,0,1-3.25,11.86v2.44s3.58-8.29,5.53-9.42C114.14,244.5,106.5,233.77,149.88,216.22Z"/><path class="cls-28" d="M108.61,251.48a22.51,22.51,0,0,0-2.26,17.72l1.35-.36s-1.31-10.72,1.44-16.1S108.61,251.48,108.61,251.48Z"/><path class="cls-4" d="M92.47,230.21s16.07-9,8.57-21.2c0,0-6-7.5-12.42-9.43,0,0,3.43,18.21,0,18.64s-2.36-20.57-2.36-20.57-16.92-8.13-23.56-7.49c0,0,10.5,17.78,7.07,17.35s-15.21-18.42-15.21-18.42-17.34-3.22-20.13,7.07,1.72,15.42,4.29,16.06,19.06.43,18.63,2.57-11.57,5.57-17.78,3.64c0,0,6.86,16.92,15.85,16.06s11.78-6.42,17.35-6.85,9.64,1.07,6.85,2.57-12.2.49-16.7,4.32-8.14,6.18.21,7.89,23.35.64,26.35-5.78Z"/><path class="cls-28" d="M42.36,199.37s45,14.56,50.11,30.84a34.23,34.23,0,0,0,4.29,15.64v3.21s-4.71-10.92-7.28-12.42C89.48,236.64,99.54,222.5,42.36,199.37Z"/><path class="cls-28" d="M96.76,245.85s6.94,10.53,3,23.35L98,268.72s1.73-14.12-1.9-21.22S96.76,245.85,96.76,245.85Z"/><path class="cls-21" d="M61.55,265.54a31.47,31.47,0,1,0,62.93,0Z"/><path class="cls-22" d="M82.26,265.54c0,11.79,2.83,23.8,12.42,29.18,1.6.9,6.94-.07,8.69.54a31.48,31.48,0,0,0,21.11-29.72Z"/><path class="cls-35" d="M93,297c1.28.16-5.16,0-3.84,0a31.47,31.47,0,0,0,31.47-31.47h-7.82C112.83,281.59,108.55,295.08,93,297Z"/><path class="cls-21" d="M61.12,298.61h63.8a3.89,3.89,0,0,0-3.89-3.89H65A3.88,3.88,0,0,0,61.12,298.61Z"/><path class="cls-22" d="M91,298.61h33.91a3.89,3.89,0,0,0-3.89-3.89H94.89A3.89,3.89,0,0,0,91,298.61Z"/><rect class="cls-36" x="60.83" y="265.54" width="64.68" height="0.97" transform="translate(186.35 532.04) rotate(180)"/><path class="cls-37" d="M358.43,247.25l-2.63,9.95h0l-10.94,41.41h-1.15L350,264.26a.43.43,0,0,0,0-.11l3.13-17Z"/><path class="cls-38" d="M358.43,247.25l-2.63,9.95h0c-.15.08-4.94,2.55-5.75,6.95l3.13-17Z"/><path class="cls-37" d="M410.06,298.61h-1.15L400,264.88h0l-2-7.67h0l-2.62-9.95,5.24-.09,1.79,9.72,1.34,7.27a.43.43,0,0,1,0,.11Z"/><path class="cls-38" d="M402.38,256.88a14.44,14.44,0,0,0-2.38,8l-2-7.67h0l-2.62-9.95,5.24-.09Z"/><rect class="cls-9" x="330.24" y="237.75" width="90.28" height="10.39" rx="5.2"/><path class="cls-28" d="M381.88,222.48s-5.39,2.19-9.23-3.31C372.65,219.17,378.88,218.11,381.88,222.48Z"/><path class="cls-28" d="M382.26,220.22a2.63,2.63,0,0,1,2.65-2A3.37,3.37,0,0,1,382.26,220.22Z"/><path class="cls-28" d="M381.13,208.94a3.53,3.53,0,0,1-3.6-2.59S380.36,206.67,381.13,208.94Z"/><path class="cls-28" d="M374.92,171c5.28-1.13,5.37-5.45,5.37-5.45C374.07,167.55,374.92,171,374.92,171Z"/><path class="cls-28" d="M374.56,170.05a4.78,4.78,0,0,1-5.64-2S372.72,167.38,374.56,170.05Z"/><path class="cls-28" d="M381.78,235.15l.68.78a.17.17,0,0,0,.3-.11,283.13,283.13,0,0,0-5.23-53.63,172.56,172.56,0,0,0-5.23-20.31h0c0,.08,2.39,7.72,5,20.4,2.37,11.67,5.09,26.92,4.4,52.57A.48.48,0,0,0,381.78,235.15Z"/><path class="cls-22" d="M372.34,158.85c.84.68,4.07,3.56.94,5.79,0,0-2.4.76-3.19-1.09a11.87,11.87,0,0,1-.82-3.65.31.31,0,0,1,.3-.33,2.47,2.47,0,0,0,.67-.16c.3-.11.45-.56.85-.66a2.59,2.59,0,0,1,.8-.09A.91.91,0,0,1,372.34,158.85Z"/><path class="cls-28" d="M374.13,163.83a2,2,0,0,0-.6,2v.45a2.13,2.13,0,0,0-1.43-1.48A2.53,2.53,0,0,0,374.13,163.83Z"/><path class="cls-39" d="M374.92,171c5.28-1.13,5.37-5.45,5.37-5.45S376.11,167.88,374.92,171Z"/><path class="cls-28" d="M380,168.07a4.77,4.77,0,0,0,5.59-2.13S381.77,165.37,380,168.07Z"/><path class="cls-28" d="M374.07,233.3l-.67.8a.17.17,0,0,1-.3-.1,283.06,283.06,0,0,1,4.16-53.72,168.43,168.43,0,0,1,4.83-20.41h0c0,.07-2.24,7.76-4.57,20.48-2.14,11.72-4.55,27-3.34,52.65A.46.46,0,0,1,374.07,233.3Z"/><path class="cls-22" d="M382,156.84c-.83.69-4,3.64-.82,5.8,0,0,2.41.71,3.17-1.15a12,12,0,0,0,.74-3.66.32.32,0,0,0-.3-.33,2.84,2.84,0,0,1-.68-.14c-.3-.11-.46-.56-.86-.65a2.63,2.63,0,0,0-.8-.07A.84.84,0,0,0,382,156.84Z"/><path class="cls-28" d="M380.29,161.85a2,2,0,0,1,.64,2v.45a2.13,2.13,0,0,1,1.4-1.51A2.53,2.53,0,0,1,380.29,161.85Z"/><path class="cls-28" d="M378.58,164.18a4.77,4.77,0,0,1-5.06-3.2S377.37,161.18,378.58,164.18Z"/><path class="cls-28" d="M371.44,229.29l.49.91a.17.17,0,0,0,.32,0,284,284,0,0,0,6.59-53.48,170.61,170.61,0,0,0-.68-21h0c0,.08.65,8.05.4,21-.23,11.9-.9,27.38-7.16,52.26A.45.45,0,0,0,371.44,229.29Z"/><path class="cls-22" d="M378.86,152.77c.68.85,3.19,4.37-.34,5.85,0,0-2.51.22-2.88-1.75a12,12,0,0,1,0-3.74.32.32,0,0,1,.36-.26,2.69,2.69,0,0,0,.69,0c.32,0,.56-.45,1-.46a2.43,2.43,0,0,1,.79.09A.81.81,0,0,1,378.86,152.77Z"/><path class="cls-28" d="M379.52,158a1.94,1.94,0,0,0-1,1.81l-.09.45a2.15,2.15,0,0,0-1.06-1.76A2.49,2.49,0,0,0,379.52,158Z"/><path class="cls-28" d="M375.69,160.28s0-2.78-2.39-3.65C373.3,156.63,372.77,159,375.69,160.28Z"/><path class="cls-40" d="M381.31,155.82a2.82,2.82,0,0,1,1.89-2.73A2.36,2.36,0,0,1,381.31,155.82Z"/><path class="cls-40" d="M374.88,168.56a3.09,3.09,0,0,1,.91-3.77A3.62,3.62,0,0,1,374.88,168.56Z"/><path class="cls-28" d="M373.52,168.39a1.14,1.14,0,0,0-1-1.21S372.36,168.08,373.52,168.39Z"/><path class="cls-28" d="M383.54,164.79s.85-1.75,3.57-1.45C387.11,163.34,386.7,165.23,383.54,164.79Z"/><path class="cls-22" d="M368.54,237.75h17.4a1.92,1.92,0,0,0,1.9-2.2l-8.1-55.83a1.06,1.06,0,0,0-1.05-.91h-2.58a1.14,1.14,0,0,0-1.12,1l-8.3,55.83A1.88,1.88,0,0,0,368.54,237.75Z"/><path class="cls-41" d="M382.09,236.06l-4.3-57.23a1.06,1.06,0,0,1,.91.89l8.1,55.83a1.93,1.93,0,0,1-1.9,2.2h-3.48A2.07,2.07,0,0,0,382.09,236.06Z"/><path class="cls-42" d="M360.18,223.89a8.72,8.72,0,0,1-4.87,2,7.78,7.78,0,0,0-2-2.33l.43-1.77-4.23,0h0l-4.36,0h-4.28l.41,1.82a8,8,0,0,0-1.44,1.46,5,5,0,0,0-3.39-1.14,2.77,2.77,0,0,0-2.48,3.55c.29,1,1.17,2,2.89,3.2a9.18,9.18,0,0,0,2.05,1,8.1,8.1,0,0,0,4.33,4.32l-.28,1.17a.46.46,0,0,0,.45.57h7.92a.43.43,0,0,0,.41-.57l-.41-1.17a7.75,7.75,0,0,0,4.78-6l.05.18c1.69-.08,4.42-4.3,5.26-5.67v0h0l.24-.4C361.34,223.63,360.18,223.89,360.18,223.89Zm-25.31,3.16a1.6,1.6,0,0,1,.92-1.71,2.66,2.66,0,0,1,.91-.25,3.28,3.28,0,0,1,2.49,1,6.74,6.74,0,0,0-.76,3.11,6.52,6.52,0,0,0,.27,1.88C337.44,230.34,335.29,228.71,334.87,227.05Z"/><path class="cls-20" d="M355.8,227.51a2.37,2.37,0,0,0-.47-.14l.83,2.8c1.69-.08,4.42-4.3,5.26-5.67C361.2,224.81,358.45,228.55,355.8,227.51Z"/><path class="cls-20" d="M345.75,228.92c0-2.87,3.31-5.37,3.31-5.37l-1.36-.09a6.9,6.9,0,0,1-4-1.72h-2.83l.41,1.82a7.79,7.79,0,0,0-1.68,1.81c-.88-.27-2.93-.79-3.81,0h0a2.66,2.66,0,0,1,.91-.25,3.28,3.28,0,0,1,2.49,1,6.74,6.74,0,0,0-.76,3.11,7.6,7.6,0,0,0,4.81,6.8l-.28,1.17a.46.46,0,0,0,.45.57h5.77l.43-1.67C347.7,235.57,345.8,231.79,345.75,228.92Z"/><path class="cls-22" d="M410.25,233.35c-.13-.49.64-.8.64-.8l.35,1S410.37,233.84,410.25,233.35Z"/><path class="cls-22" d="M392.39,233.2a.82.82,0,0,0,.25,1.13l.05,0a.71.71,0,0,0-.22.52c.06,1.26,17.95-.12,17.95-.12a5.5,5.5,0,0,0-.52-.44.83.83,0,0,0-.71-1.48l-.53.19a.88.88,0,0,0-.36.26,4,4,0,0,0-2.71-.47l-.17,0-.19-.8s-.86.24-.78.79a.3.3,0,0,0,.08.17h-.06a1.23,1.23,0,0,0,0-.19.89.89,0,0,0-1.07-.65l-.6.14a.89.89,0,0,0-.67.77h-.23a1.34,1.34,0,0,0-.62-.05.85.85,0,0,0-.44-.66l-.51-.26a.83.83,0,0,0-1.1.36.77.77,0,0,0-.09.39l-.51-.05h-.3l-.43-.82s-.69.4-.53.86h0a.81.81,0,0,0-1.09-.33l-.19.1a.83.83,0,0,0-.24-1,.82.82,0,0,0-1.14.17l-.35.45a.83.83,0,0,0,.17,1.15.38.38,0,0,0-.42,0l-.07-.06-.48-.31a.82.82,0,0,0-1.13.25c.3-.4-.46-.91-.46-.91l-.57.9S392.08,233.6,392.39,233.2Zm2.15.2,0-.05.06,0Z"/><path class="cls-22" d="M395.83,231.59c-.38-.34.1-1,.1-1l.85.64S396.21,231.93,395.83,231.59Z"/><path class="cls-22" d="M398.19,232.55l.49-1s.8.44.53.87S398.19,232.55,398.19,232.55Z"/><path class="cls-20" d="M391.59,234.4v1.29a2.06,2.06,0,0,0,2.05,2.06H409a2.06,2.06,0,0,0,2-2.06V234.4Z"/><path class="cls-14" d="M392.55,234.4v1.29a2.07,2.07,0,0,0,2.06,2.06H403a2.06,2.06,0,0,0,2.05-2.06V234.4Z"/></svg>