<svg id="visual" viewBox="0 0 900 600" width="900" height="600" xmlns="http://www.w3.org/2000/svg" xmlns:xlink="http://www.w3.org/1999/xlink" version="1.1"><path d="M0 477L30 472.5C60 468 120 459 180 461C240 463 300 476 360 485.8C420 495.7 480 502.3 540 494.8C600 487.3 660 465.7 720 462.7C780 459.7 840 475.3 870 483.2L900 491L900 601L870 601C840 601 780 601 720 601C660 601 600 601 540 601C480 601 420 601 360 601C300 601 240 601 180 601C120 601 60 601 30 601L0 601Z" fill="#a08255" stroke-linecap="round" stroke-linejoin="miter"></path></svg>